<mxfile host="app.diagrams.net" agent="Mozilla/5.0 (Windows NT 10.0; Win64; x64) AppleWebKit/537.36 (KHTML, like Gecko) Chrome/129.0.0.0 Safari/537.36" version="24.7.17">
  <diagram name="Page-1" id="D21pwpTlaBD9l0EpaQ9k">
    <mxGraphModel dx="2074" dy="2232" grid="1" gridSize="10" guides="1" tooltips="1" connect="1" arrows="1" fold="1" page="1" pageScale="1" pageWidth="850" pageHeight="1100" math="0" shadow="0">
      <root>
        <mxCell id="0" />
        <mxCell id="1" parent="0" />
        <mxCell id="kfeohubmjwaTDS-P6IU5-13" value="" style="edgeStyle=orthogonalEdgeStyle;rounded=0;orthogonalLoop=1;jettySize=auto;html=1;" parent="1" source="kfeohubmjwaTDS-P6IU5-3" target="kfeohubmjwaTDS-P6IU5-12" edge="1">
          <mxGeometry relative="1" as="geometry" />
        </mxCell>
        <mxCell id="kfeohubmjwaTDS-P6IU5-17" style="edgeStyle=orthogonalEdgeStyle;rounded=0;orthogonalLoop=1;jettySize=auto;html=1;entryX=0;entryY=0.5;entryDx=0;entryDy=0;" parent="1" source="kfeohubmjwaTDS-P6IU5-3" target="kfeohubmjwaTDS-P6IU5-16" edge="1">
          <mxGeometry relative="1" as="geometry" />
        </mxCell>
        <mxCell id="kfeohubmjwaTDS-P6IU5-3" value="trajectory tracking" style="rounded=1;whiteSpace=wrap;html=1;" parent="1" vertex="1">
          <mxGeometry x="300" y="300" width="120" height="60" as="geometry" />
        </mxCell>
        <mxCell id="kfeohubmjwaTDS-P6IU5-11" style="edgeStyle=orthogonalEdgeStyle;rounded=0;orthogonalLoop=1;jettySize=auto;html=1;entryX=0;entryY=0.5;entryDx=0;entryDy=0;" parent="1" source="kfeohubmjwaTDS-P6IU5-9" target="kfeohubmjwaTDS-P6IU5-3" edge="1">
          <mxGeometry relative="1" as="geometry" />
        </mxCell>
        <mxCell id="kfeohubmjwaTDS-P6IU5-14" style="edgeStyle=orthogonalEdgeStyle;rounded=0;orthogonalLoop=1;jettySize=auto;html=1;entryX=0;entryY=0.5;entryDx=0;entryDy=0;" parent="1" source="kfeohubmjwaTDS-P6IU5-9" target="kfeohubmjwaTDS-P6IU5-12" edge="1">
          <mxGeometry relative="1" as="geometry">
            <Array as="points">
              <mxPoint x="210" y="330" />
              <mxPoint x="210" y="470" />
            </Array>
          </mxGeometry>
        </mxCell>
        <mxCell id="kfeohubmjwaTDS-P6IU5-9" value="trajectory stitching" style="whiteSpace=wrap;html=1;rounded=1;" parent="1" vertex="1">
          <mxGeometry x="60" y="300" width="120" height="60" as="geometry" />
        </mxCell>
        <mxCell id="kfeohubmjwaTDS-P6IU5-18" style="edgeStyle=orthogonalEdgeStyle;rounded=0;orthogonalLoop=1;jettySize=auto;html=1;entryX=0;entryY=0.75;entryDx=0;entryDy=0;" parent="1" source="kfeohubmjwaTDS-P6IU5-12" target="kfeohubmjwaTDS-P6IU5-16" edge="1">
          <mxGeometry relative="1" as="geometry" />
        </mxCell>
        <mxCell id="kfeohubmjwaTDS-P6IU5-12" value="attitude tracking" style="rounded=1;whiteSpace=wrap;html=1;" parent="1" vertex="1">
          <mxGeometry x="490" y="440" width="120" height="60" as="geometry" />
        </mxCell>
        <mxCell id="kfeohubmjwaTDS-P6IU5-19" style="edgeStyle=orthogonalEdgeStyle;rounded=0;orthogonalLoop=1;jettySize=auto;html=1;" parent="1" source="kfeohubmjwaTDS-P6IU5-16" target="kfeohubmjwaTDS-P6IU5-20" edge="1">
          <mxGeometry relative="1" as="geometry">
            <mxPoint x="1010" y="330" as="targetPoint" />
          </mxGeometry>
        </mxCell>
        <mxCell id="kfeohubmjwaTDS-P6IU5-16" value="propeller model" style="rounded=1;whiteSpace=wrap;html=1;" parent="1" vertex="1">
          <mxGeometry x="800" y="300" width="120" height="60" as="geometry" />
        </mxCell>
        <mxCell id="kfeohubmjwaTDS-P6IU5-24" style="edgeStyle=orthogonalEdgeStyle;rounded=0;orthogonalLoop=1;jettySize=auto;html=1;entryX=0;entryY=0.75;entryDx=0;entryDy=0;" parent="1" source="kfeohubmjwaTDS-P6IU5-20" target="kfeohubmjwaTDS-P6IU5-3" edge="1">
          <mxGeometry relative="1" as="geometry">
            <mxPoint x="1010" y="720" as="targetPoint" />
            <Array as="points">
              <mxPoint x="1010" y="570" />
              <mxPoint x="230" y="570" />
              <mxPoint x="230" y="345" />
            </Array>
          </mxGeometry>
        </mxCell>
        <mxCell id="kfeohubmjwaTDS-P6IU5-26" style="edgeStyle=orthogonalEdgeStyle;rounded=0;orthogonalLoop=1;jettySize=auto;html=1;entryX=0.5;entryY=1;entryDx=0;entryDy=0;" parent="1" source="kfeohubmjwaTDS-P6IU5-20" target="kfeohubmjwaTDS-P6IU5-12" edge="1">
          <mxGeometry relative="1" as="geometry">
            <Array as="points">
              <mxPoint x="1010" y="520" />
              <mxPoint x="550" y="520" />
            </Array>
          </mxGeometry>
        </mxCell>
        <mxCell id="al62LfJfNGJungfIsm0y-21" value="" style="edgeStyle=orthogonalEdgeStyle;rounded=0;orthogonalLoop=1;jettySize=auto;html=1;" parent="1" source="kfeohubmjwaTDS-P6IU5-20" target="al62LfJfNGJungfIsm0y-20" edge="1">
          <mxGeometry relative="1" as="geometry" />
        </mxCell>
        <mxCell id="al62LfJfNGJungfIsm0y-24" style="edgeStyle=orthogonalEdgeStyle;rounded=0;orthogonalLoop=1;jettySize=auto;html=1;entryX=0;entryY=0.5;entryDx=0;entryDy=0;" parent="1" source="kfeohubmjwaTDS-P6IU5-20" target="al62LfJfNGJungfIsm0y-22" edge="1">
          <mxGeometry relative="1" as="geometry" />
        </mxCell>
        <mxCell id="kfeohubmjwaTDS-P6IU5-20" value="rigid body dynamics" style="rounded=1;whiteSpace=wrap;html=1;" parent="1" vertex="1">
          <mxGeometry x="950" y="300" width="120" height="60" as="geometry" />
        </mxCell>
        <mxCell id="kfeohubmjwaTDS-P6IU5-23" style="edgeStyle=orthogonalEdgeStyle;rounded=0;orthogonalLoop=1;jettySize=auto;html=1;entryX=0.5;entryY=0;entryDx=0;entryDy=0;" parent="1" source="kfeohubmjwaTDS-P6IU5-22" target="kfeohubmjwaTDS-P6IU5-20" edge="1">
          <mxGeometry relative="1" as="geometry" />
        </mxCell>
        <mxCell id="kfeohubmjwaTDS-P6IU5-22" value="disturbance force model" style="rounded=1;whiteSpace=wrap;html=1;" parent="1" vertex="1">
          <mxGeometry x="950" y="120" width="120" height="60" as="geometry" />
        </mxCell>
        <mxCell id="al62LfJfNGJungfIsm0y-12" value="" style="edgeStyle=orthogonalEdgeStyle;rounded=0;orthogonalLoop=1;jettySize=auto;html=1;" parent="1" source="al62LfJfNGJungfIsm0y-1" target="al62LfJfNGJungfIsm0y-11" edge="1">
          <mxGeometry relative="1" as="geometry" />
        </mxCell>
        <mxCell id="al62LfJfNGJungfIsm0y-15" style="edgeStyle=orthogonalEdgeStyle;rounded=0;orthogonalLoop=1;jettySize=auto;html=1;entryX=0;entryY=0.5;entryDx=0;entryDy=0;" parent="1" source="al62LfJfNGJungfIsm0y-1" target="al62LfJfNGJungfIsm0y-13" edge="1">
          <mxGeometry relative="1" as="geometry">
            <mxPoint x="450" y="40" as="targetPoint" />
          </mxGeometry>
        </mxCell>
        <mxCell id="al62LfJfNGJungfIsm0y-1" value="preprocessing" style="rounded=1;whiteSpace=wrap;html=1;" parent="1" vertex="1">
          <mxGeometry x="330" y="-100" width="120" height="60" as="geometry" />
        </mxCell>
        <mxCell id="al62LfJfNGJungfIsm0y-2" value="" style="edgeStyle=orthogonalEdgeStyle;rounded=0;orthogonalLoop=1;jettySize=auto;html=1;" parent="1" source="al62LfJfNGJungfIsm0y-3" target="al62LfJfNGJungfIsm0y-5" edge="1">
          <mxGeometry relative="1" as="geometry" />
        </mxCell>
        <mxCell id="al62LfJfNGJungfIsm0y-3" value="waypoint random sampling" style="rounded=1;whiteSpace=wrap;html=1;" parent="1" vertex="1">
          <mxGeometry x="60" y="-250" width="120" height="60" as="geometry" />
        </mxCell>
        <mxCell id="al62LfJfNGJungfIsm0y-4" value="" style="edgeStyle=orthogonalEdgeStyle;rounded=0;orthogonalLoop=1;jettySize=auto;html=1;" parent="1" source="al62LfJfNGJungfIsm0y-5" target="al62LfJfNGJungfIsm0y-7" edge="1">
          <mxGeometry relative="1" as="geometry" />
        </mxCell>
        <mxCell id="al62LfJfNGJungfIsm0y-5" value="minimum snap unit trajectory generation" style="whiteSpace=wrap;html=1;rounded=1;" parent="1" vertex="1">
          <mxGeometry x="260" y="-250" width="120" height="60" as="geometry" />
        </mxCell>
        <mxCell id="al62LfJfNGJungfIsm0y-6" value="" style="edgeStyle=orthogonalEdgeStyle;rounded=0;orthogonalLoop=1;jettySize=auto;html=1;" parent="1" source="al62LfJfNGJungfIsm0y-7" target="al62LfJfNGJungfIsm0y-8" edge="1">
          <mxGeometry relative="1" as="geometry" />
        </mxCell>
        <mxCell id="al62LfJfNGJungfIsm0y-7" value="travel time optimization" style="whiteSpace=wrap;html=1;rounded=1;" parent="1" vertex="1">
          <mxGeometry x="460" y="-250" width="120" height="60" as="geometry" />
        </mxCell>
        <mxCell id="al62LfJfNGJungfIsm0y-10" value="" style="edgeStyle=orthogonalEdgeStyle;rounded=0;orthogonalLoop=1;jettySize=auto;html=1;" parent="1" source="al62LfJfNGJungfIsm0y-8" target="al62LfJfNGJungfIsm0y-9" edge="1">
          <mxGeometry relative="1" as="geometry" />
        </mxCell>
        <mxCell id="al62LfJfNGJungfIsm0y-8" value="trajectory stitching" style="whiteSpace=wrap;html=1;rounded=1;" parent="1" vertex="1">
          <mxGeometry x="660" y="-250" width="120" height="60" as="geometry" />
        </mxCell>
        <mxCell id="al62LfJfNGJungfIsm0y-9" value="flight map" style="whiteSpace=wrap;html=1;rounded=1;" parent="1" vertex="1">
          <mxGeometry x="860" y="-250" width="120" height="60" as="geometry" />
        </mxCell>
        <mxCell id="al62LfJfNGJungfIsm0y-17" style="edgeStyle=orthogonalEdgeStyle;rounded=0;orthogonalLoop=1;jettySize=auto;html=1;entryX=0.75;entryY=0;entryDx=0;entryDy=0;" parent="1" source="al62LfJfNGJungfIsm0y-11" target="al62LfJfNGJungfIsm0y-13" edge="1">
          <mxGeometry relative="1" as="geometry">
            <Array as="points">
              <mxPoint x="800" y="-20" />
              <mxPoint x="800" y="-20" />
            </Array>
          </mxGeometry>
        </mxCell>
        <mxCell id="al62LfJfNGJungfIsm0y-11" value="Phi net" style="whiteSpace=wrap;html=1;rounded=1;" parent="1" vertex="1">
          <mxGeometry x="710" y="-100" width="120" height="60" as="geometry" />
        </mxCell>
        <mxCell id="al62LfJfNGJungfIsm0y-16" value="" style="edgeStyle=orthogonalEdgeStyle;rounded=0;orthogonalLoop=1;jettySize=auto;html=1;" parent="1" source="al62LfJfNGJungfIsm0y-13" target="al62LfJfNGJungfIsm0y-11" edge="1">
          <mxGeometry relative="1" as="geometry">
            <Array as="points">
              <mxPoint x="750" y="-10" />
              <mxPoint x="750" y="-10" />
            </Array>
          </mxGeometry>
        </mxCell>
        <mxCell id="al62LfJfNGJungfIsm0y-13" value="H net" style="whiteSpace=wrap;html=1;rounded=1;" parent="1" vertex="1">
          <mxGeometry x="710" y="20" width="120" height="60" as="geometry" />
        </mxCell>
        <mxCell id="al62LfJfNGJungfIsm0y-19" style="edgeStyle=orthogonalEdgeStyle;rounded=0;orthogonalLoop=1;jettySize=auto;html=1;entryX=0;entryY=0.5;entryDx=0;entryDy=0;" parent="1" source="al62LfJfNGJungfIsm0y-18" target="al62LfJfNGJungfIsm0y-1" edge="1">
          <mxGeometry relative="1" as="geometry" />
        </mxCell>
        <mxCell id="al62LfJfNGJungfIsm0y-18" value="simulation data" style="rounded=1;whiteSpace=wrap;html=1;" parent="1" vertex="1">
          <mxGeometry x="60" y="-100" width="120" height="60" as="geometry" />
        </mxCell>
        <mxCell id="al62LfJfNGJungfIsm0y-23" value="" style="edgeStyle=orthogonalEdgeStyle;rounded=0;orthogonalLoop=1;jettySize=auto;html=1;" parent="1" source="al62LfJfNGJungfIsm0y-20" target="al62LfJfNGJungfIsm0y-22" edge="1">
          <mxGeometry relative="1" as="geometry" />
        </mxCell>
        <mxCell id="al62LfJfNGJungfIsm0y-27" value="" style="edgeStyle=orthogonalEdgeStyle;rounded=0;orthogonalLoop=1;jettySize=auto;html=1;" parent="1" source="al62LfJfNGJungfIsm0y-20" target="al62LfJfNGJungfIsm0y-26" edge="1">
          <mxGeometry relative="1" as="geometry" />
        </mxCell>
        <mxCell id="al62LfJfNGJungfIsm0y-20" value="Trained Phi net" style="whiteSpace=wrap;html=1;rounded=1;" parent="1" vertex="1">
          <mxGeometry x="1150" y="300" width="120" height="60" as="geometry" />
        </mxCell>
        <mxCell id="al62LfJfNGJungfIsm0y-28" style="edgeStyle=orthogonalEdgeStyle;rounded=0;orthogonalLoop=1;jettySize=auto;html=1;entryX=0;entryY=0.75;entryDx=0;entryDy=0;" parent="1" source="al62LfJfNGJungfIsm0y-22" target="al62LfJfNGJungfIsm0y-26" edge="1">
          <mxGeometry relative="1" as="geometry" />
        </mxCell>
        <mxCell id="al62LfJfNGJungfIsm0y-22" value="Online parameter estimation" style="whiteSpace=wrap;html=1;rounded=1;" parent="1" vertex="1">
          <mxGeometry x="1150" y="430" width="120" height="60" as="geometry" />
        </mxCell>
        <mxCell id="al62LfJfNGJungfIsm0y-26" value="estimated disturbance force" style="whiteSpace=wrap;html=1;rounded=1;" parent="1" vertex="1">
          <mxGeometry x="1350" y="300" width="120" height="60" as="geometry" />
        </mxCell>
        <mxCell id="e-CBbWwOwxh2sP8ZrgcO-5" style="edgeStyle=orthogonalEdgeStyle;rounded=0;orthogonalLoop=1;jettySize=auto;html=1;entryX=0;entryY=0.5;entryDx=0;entryDy=0;" edge="1" parent="1" source="e-CBbWwOwxh2sP8ZrgcO-1" target="kfeohubmjwaTDS-P6IU5-22">
          <mxGeometry relative="1" as="geometry" />
        </mxCell>
        <mxCell id="e-CBbWwOwxh2sP8ZrgcO-1" value="drone wall effect test data" style="rounded=1;whiteSpace=wrap;html=1;" vertex="1" parent="1">
          <mxGeometry x="640" y="120" width="120" height="60" as="geometry" />
        </mxCell>
      </root>
    </mxGraphModel>
  </diagram>
</mxfile>
